<svg width="53" height="52" viewBox="0 0 53 52" fill="none" xmlns="http://www.w3.org/2000/svg">
<path d="M46.2043 28.3626L30.4808 41.0408V3.20987C30.4808 3.09909 30.4738 2.9896 30.4604 2.8817C30.2563 1.2631 28.5611 0 26.5 0C24.3016 0 22.5191 1.43712 22.5191 3.20987V41.0408L6.79574 28.3626C5.24114 27.1092 2.72058 27.1092 1.16598 28.3626C0.971647 28.5192 0.801616 28.6882 0.655853 28.8661C-0.364362 30.1121 -0.194332 31.8051 1.16598 32.9021L23.685 51.06C25.2398 52.3134 27.7601 52.3134 29.3149 51.06L51.8342 32.9021C53.3886 31.6484 53.3886 29.6162 51.8342 28.3626C50.2794 27.1092 47.7587 27.1092 46.2043 28.3626Z" fill="#E3DED9"/>
</svg>
