<svg width="29" height="29" viewBox="0 0 29 29" fill="none" xmlns="http://www.w3.org/2000/svg">
<path fill-rule="evenodd" clip-rule="evenodd" d="M16.7667 28.6891C17.0341 28.8845 17.3646 29 17.7222 29H27.3889C28.2787 29 29 28.2854 29 27.4041V14.3631C29 13.5165 28.6605 12.7046 28.0562 12.1062L16.7784 0.934855C15.5202 -0.311618 13.4798 -0.311618 12.2216 0.934855L0.943773 12.1062C0.339477 12.7046 0 13.5165 0 14.3631V27.4041C0 28.2854 0.721327 29 1.61111 29H11.2778C11.6354 29 11.9659 28.8845 12.2333 28.6891C12.6309 28.3985 12.8889 27.9311 12.8889 27.4041V19.4246H16.1111V27.4041C16.1111 27.9311 16.3691 28.3985 16.7667 28.6891ZM14.5 4.32026L4.02778 14.6936V25.0103H8.86111V17.0306C8.86111 16.1494 9.58244 15.4347 10.4722 15.4347H18.5278C19.4176 15.4347 20.1389 16.1494 20.1389 17.0306V25.0103H24.9722V14.6936L14.5 4.32026Z" fill="#F4DBD3"/>
</svg>
